<?xml version="1.0" encoding="utf-8"?>
<!-- Generator: Adobe Illustrator 17.0.0, SVG Export Plug-In . SVG Version: 6.00 Build 0)  -->
<!DOCTYPE svg PUBLIC "-//W3C//DTD SVG 1.1//EN" "http://www.w3.org/Graphics/SVG/1.1/DTD/svg11.dtd">
<svg version="1.1" id="Layer_1" xmlns="http://www.w3.org/2000/svg" xmlns:xlink="http://www.w3.org/1999/xlink" x="0px" y="0px"
	 width="306.506px" height="64.001px" viewBox="0 0 306.506 64.001" enable-background="new 0 0 306.506 64.001"
	 xml:space="preserve">
<g>
	<defs>
		<rect id="SVGID_1_" y="0" width="306.506" height="64.001"/>
	</defs>
	<clipPath id="SVGID_2_">
		<use xlink:href="#SVGID_1_"  overflow="visible"/>
	</clipPath>
	<path clip-path="url(#SVGID_2_)" fill="#F7931A" d="M63.035,39.742c-4.274,17.143-21.637,27.576-38.782,23.301
		C7.116,58.769-3.317,41.405,0.958,24.263C5.23,7.118,22.593-3.316,39.733,0.958C56.877,5.232,67.309,22.598,63.035,39.742"/>
	<path clip-path="url(#SVGID_2_)" fill="#FFFFFF" d="M46.105,27.442c0.637-4.258-2.605-6.547-7.038-8.074l1.438-5.768l-3.511-0.875
		l-1.4,5.616c-0.923-0.23-1.871-0.447-2.813-0.662l1.41-5.653l-3.509-0.875l-1.439,5.766c-0.764-0.174-1.514-0.346-2.242-0.527
		l0.004-0.018l-4.842-1.209l-0.934,3.75c0,0,2.605,0.597,2.55,0.634c1.422,0.355,1.679,1.296,1.636,2.042l-1.638,6.571
		c0.098,0.025,0.225,0.061,0.365,0.117c-0.117-0.029-0.242-0.061-0.371-0.092l-2.296,9.205c-0.174,0.432-0.615,1.08-1.609,0.834
		c0.035,0.051-2.552-0.637-2.552-0.637l-1.743,4.019l4.569,1.139c0.85,0.213,1.683,0.436,2.503,0.646l-1.453,5.834l3.507,0.875
		l1.439-5.772c0.958,0.26,1.888,0.5,2.798,0.726L27.5,50.799l3.511,0.875l1.453-5.823c5.987,1.133,10.489,0.676,12.384-4.739
		c1.527-4.36-0.076-6.875-3.226-8.515C43.916,32.068,45.644,30.559,46.105,27.442z M38.083,38.691
		c-1.085,4.36-8.426,2.003-10.806,1.412l1.928-7.729C31.585,32.968,39.217,34.144,38.083,38.691 M39.169,27.379
		c-0.99,3.966-7.1,1.951-9.082,1.457l1.748-7.01C33.817,22.32,40.2,23.242,39.169,27.379"/>
	<path clip-path="url(#SVGID_2_)" fill="#4D4D4D" d="M93.775,19.366c2.595,0,4.837,0.465,6.721,1.378
		c1.893,0.922,3.455,2.164,4.708,3.726c1.236,1.57,2.156,3.405,2.75,5.508c0.59,2.109,0.886,4.376,0.886,6.803
		c0,3.728-0.683,7.25-2.062,10.57c-1.379,3.325-3.25,6.209-5.63,8.669c-2.378,2.457-5.186,4.394-8.424,5.825
		c-3.233,1.432-6.748,2.148-10.522,2.148c-0.488,0-1.346-0.014-2.558-0.039c-1.212-0.025-2.605-0.15-4.165-0.361
		c-1.57-0.219-3.23-0.543-4.983-0.977c-1.752-0.426-3.416-1.023-4.983-1.781L79.525,1.959l12.55-1.945l-5.017,20.893
		c1.074-0.484,2.156-0.859,3.236-1.132C91.375,19.506,92.535,19.366,93.775,19.366z M83.248,54.037c1.89,0,3.671-0.465,5.344-1.378
		c1.678-0.914,3.126-2.148,4.339-3.685c1.213-1.544,2.173-3.283,2.873-5.226c0.7-1.943,1.054-3.97,1.054-6.079
		c0-2.591-0.433-4.612-1.296-6.073c-0.863-1.455-2.46-2.187-4.779-2.187c-0.76,0-1.739,0.145-2.953,0.404
		c-1.218,0.275-2.308,0.846-3.285,1.705l-5.342,22.188c0.322,0.057,0.607,0.111,0.85,0.162c0.238,0.055,0.501,0.094,0.763,0.121
		c0.277,0.031,0.594,0.047,0.977,0.047C82.176,54.036,82.655,54.037,83.248,54.037z"/>
	<path clip-path="url(#SVGID_2_)" fill="#4D4D4D" d="M121.855,62.863h-11.98l10.12-42.599h12.069l-10.205,42.597L121.855,62.863z
		 M127.688,15.076c-1.673,0-3.19-0.498-4.536-1.496c-1.357-0.992-2.029-2.519-2.029-4.577c0-1.132,0.23-2.194,0.686-3.196
		c0.463-1,1.068-1.861,1.826-2.593c0.757-0.726,1.634-1.306,2.63-1.743c1.002-0.43,2.068-0.645,3.204-0.645
		c1.672,0,3.181,0.498,4.532,1.496c1.346,1.003,2.023,2.53,2.023,4.577c0,1.136-0.229,2.202-0.689,3.202
		c-0.457,1-1.062,1.861-1.82,2.593c-0.751,0.727-1.636,1.305-2.63,1.738C129.882,14.869,128.82,15.076,127.688,15.076z"/>
	<path clip-path="url(#SVGID_2_)" fill="#4D4D4D" d="M142.566,9.653l12.555-1.945l-3.083,12.556h13.446l-2.428,9.878h-13.365
		l-3.56,14.9c-0.328,1.242-0.514,2.402-0.566,3.48c-0.059,1.083,0.078,2.013,0.402,2.796c0.322,0.785,0.901,1.39,1.741,1.818
		c0.836,0.435,2.033,0.654,3.603,0.654c1.293,0,2.553-0.123,3.771-0.367c1.211-0.24,2.438-0.574,3.68-1.011l0.894,9.236
		c-1.62,0.594-3.374,1.105-5.264,1.535c-1.893,0.436-4.134,0.646-6.724,0.646c-3.724,0-6.611-0.553-8.668-1.654
		c-2.054-1.109-3.506-2.624-4.375-4.542c-0.857-1.911-1.24-4.114-1.133-6.596c0.111-2.488,0.486-5.103,1.133-7.857l7.94-33.532
		L142.566,9.653z"/>
	<path clip-path="url(#SVGID_2_)" fill="#4D4D4D" d="M164.956,45.856c0-3.669,0.594-7.129,1.781-10.368
		c1.185-3.242,2.892-6.077,5.107-8.51c2.207-2.421,4.896-4.339,8.061-5.747c3.15-1.4,6.677-2.106,10.564-2.106
		c2.433,0,4.606,0.23,6.518,0.691c1.92,0.465,3.657,1.066,5.228,1.82l-4.134,9.4c-1.08-0.438-2.201-0.824-3.36-1.174
		c-1.16-0.357-2.576-0.529-4.251-0.529c-4.001,0-7.164,1.379-9.518,4.128c-2.345,2.751-3.526,6.454-3.526,11.099
		c0,2.753,0.594,4.979,1.786,6.682c1.186,1.703,3.377,2.55,6.558,2.55c1.57,0,3.085-0.164,4.536-0.484
		c1.462-0.324,2.753-0.732,3.89-1.214l0.895,9.636c-1.516,0.588-3.188,1.119-5.022,1.584c-1.838,0.449-4.026,0.682-6.563,0.682
		c-3.349,0-6.184-0.49-8.503-1.455c-2.32-0.98-4.237-2.281-5.747-3.929c-1.518-1.652-2.608-3.581-3.282-5.795
		C165.299,50.605,164.956,48.281,164.956,45.856z"/>
	<path clip-path="url(#SVGID_2_)" fill="#4D4D4D" d="M218.205,63.993c-2.861,0-5.346-0.436-7.454-1.299
		c-2.102-0.863-3.843-2.074-5.22-3.644c-1.379-1.562-2.411-3.413-3.118-5.546c-0.707-2.132-1.047-4.493-1.047-7.08
		c0-3.245,0.521-6.489,1.574-9.724c1.048-3.242,2.603-6.155,4.661-8.744c2.042-2.593,4.561-4.713,7.527-6.366
		c2.963-1.642,6.371-2.468,10.199-2.468c2.809,0,5.281,0.437,7.418,1.3c2.127,0.861,3.879,2.082,5.264,3.644
		c1.37,1.57,2.411,3.413,3.111,5.549c0.705,2.128,1.053,4.495,1.053,7.084c0,3.235-0.514,6.479-1.534,9.724
		c-1.021,3.229-2.536,6.149-4.536,8.744c-1.996,2.589-4.492,4.708-7.49,6.354C225.619,63.167,222.147,63.993,218.205,63.993z
		 M224.195,29.332c-1.777,0-3.348,0.516-4.693,1.535c-1.35,1.031-2.484,2.327-3.398,3.89c-0.924,1.57-1.609,3.282-2.072,5.143
		c-0.459,1.865-0.684,3.628-0.684,5.303c0,2.703,0.436,4.808,1.293,6.323c0.869,1.507,2.43,2.265,4.699,2.265
		c1.783,0,3.346-0.512,4.699-1.542c1.342-1.023,2.477-2.32,3.398-3.886c0.918-1.562,1.609-3.279,2.072-5.143
		c0.453-1.859,0.684-3.632,0.684-5.304c0-2.696-0.434-4.806-1.299-6.319C228.03,30.09,226.462,29.332,224.195,29.332"/>
	<path clip-path="url(#SVGID_2_)" fill="#4D4D4D" d="M255.236,62.863h-11.997l10.123-42.597h12.075L255.236,62.863z M261.06,15.076
		c-1.672,0-3.188-0.498-4.532-1.496c-1.35-0.992-2.028-2.519-2.028-4.577c0-1.132,0.233-2.194,0.69-3.196
		c0.457-1,1.066-1.861,1.824-2.593c0.753-0.726,1.638-1.306,2.632-1.743c0.996-0.43,2.062-0.645,3.194-0.645
		c1.676,0,3.19,0.498,4.538,1.496c1.349,1.003,2.03,2.53,2.03,4.577c0,1.136-0.242,2.202-0.695,3.202s-1.062,1.861-1.817,2.593
		c-0.76,0.727-1.634,1.305-2.63,1.738C263.262,14.869,262.197,15.076,261.06,15.076z"/>
	<path clip-path="url(#SVGID_2_)" fill="#4D4D4D" d="M274.076,22.205c0.91-0.266,1.926-0.586,3.031-0.934
		c1.109-0.348,2.348-0.672,3.732-0.964c1.369-0.301,2.914-0.545,4.613-0.734c1.699-0.193,3.635-0.287,5.786-0.287
		c6.322,0,10.68,1.841,13.086,5.512c2.404,3.671,2.82,8.695,1.26,15.063l-5.514,23h-12.066l5.344-22.516
		c0.326-1.406,0.582-2.765,0.771-4.093c0.191-1.316,0.18-2.476-0.043-3.48c-0.213-0.992-0.715-1.804-1.494-2.433
		c-0.791-0.619-1.986-0.93-3.607-0.93c-1.563,0-3.153,0.168-4.776,0.492l-7.857,32.959H264.27L274.076,22.205"/>
</g>
</svg>
