<?xml version="1.0" encoding="utf-8"?>
<!-- Generator: Adobe Illustrator 17.0.0, SVG Export Plug-In . SVG Version: 6.00 Build 0)  -->
<!DOCTYPE svg PUBLIC "-//W3C//DTD SVG 1.1//EN" "http://www.w3.org/Graphics/SVG/1.1/DTD/svg11.dtd">
<svg version="1.1" id="Layer_1" xmlns="http://www.w3.org/2000/svg" xmlns:xlink="http://www.w3.org/1999/xlink" x="0px" y="0px"
	 width="201px" height="37px" viewBox="0 0 201 37" enable-background="new 0 0 201 37" xml:space="preserve">
<g>
	<path fill-rule="evenodd" clip-rule="evenodd" fill="#DCE4E4" d="M10.398,2.5h50.686c1.105,0,2.001,0.895,2.001,2.001v27.999
		c0,1.104-0.895,1.999-2.001,1.999H10.398c-1.105,0-2.001-0.895-2.001-1.999V4.501C8.397,3.396,9.292,2.5,10.398,2.5L10.398,2.5z"/>
	<rect x="10.396" y="4.501" fill-rule="evenodd" clip-rule="evenodd" fill="#FFFFFF" width="50.69" height="27.998"/>
	<g>
		<polygon fill="#00589F" points="29.481,24.81 31.626,12.222 35.057,12.222 32.91,24.81 		"/>
		<path fill="#00589F" d="M45.356,12.531c-0.68-0.255-1.745-0.529-3.075-0.529c-3.39,0-5.779,1.707-5.799,4.154
			c-0.019,1.809,1.705,2.818,3.007,3.42c1.336,0.617,1.785,1.011,1.778,1.562c-0.008,0.844-1.067,1.229-2.053,1.229
			c-1.373,0-2.103-0.191-3.23-0.661l-0.442-0.2l-0.481,2.818c0.801,0.351,2.283,0.656,3.822,0.672c3.607,0,5.949-1.688,5.975-4.301
			c0.013-1.432-0.901-2.522-2.881-3.42c-1.199-0.582-1.934-0.971-1.926-1.561c0-0.523,0.622-1.083,1.965-1.083
			c1.122-0.017,1.935,0.227,2.568,0.482l0.308,0.145L45.356,12.531"/>
		<path fill="#00589F" d="M54.155,12.234h-2.652c-0.821,0-1.436,0.224-1.797,1.044L44.61,24.814h3.603c0,0,0.589-1.551,0.722-1.892
			c0.394,0,3.894,0.005,4.394,0.005c0.103,0.441,0.418,1.886,0.418,1.886h3.184L54.155,12.234 M49.923,20.348
			c0.284-0.725,1.367-3.519,1.367-3.519c-0.02,0.033,0.282-0.729,0.455-1.202l0.232,1.085c0,0,0.657,3.005,0.794,3.635H49.923z"/>
		<path fill="#00589F" d="M26.603,12.231l-3.36,8.585l-0.358-1.745c-0.625-2.011-2.574-4.19-4.752-5.281l3.072,11.01l3.63-0.004
			l5.402-12.565H26.603"/>
		<path fill="#F9A51A" d="M20.127,12.223h-5.533l-0.044,0.262c4.305,1.042,7.153,3.56,8.335,6.586l-1.203-5.785
			C21.474,12.489,20.872,12.251,20.127,12.223"/>
	</g>
	<path fill-rule="evenodd" clip-rule="evenodd" fill="#DCE4E4" d="M75.086,2.5h50.686c1.105,0,2.001,0.895,2.001,2.001v27.999
		c0,1.104-0.895,1.999-2.001,1.999H75.086c-1.105,0-2.001-0.895-2.001-1.999V4.501C73.085,3.396,73.98,2.5,75.086,2.5L75.086,2.5z"
		/>
	<rect x="75.084" y="4.501" fill-rule="evenodd" clip-rule="evenodd" fill="#FFFFFF" width="50.69" height="27.998"/>
	<path fill-rule="evenodd" clip-rule="evenodd" fill="#DCE4E4" d="M139.916,2.5h50.686c1.105,0,2.001,0.895,2.001,2.001v27.999
		c0,1.104-0.895,1.999-2.001,1.999h-50.686c-1.105,0-2.001-0.895-2.001-1.999V4.501C137.915,3.396,138.81,2.5,139.916,2.5
		L139.916,2.5z"/>
	<rect x="139.914" y="4.501" fill-rule="evenodd" clip-rule="evenodd" fill="#FFFFFF" width="50.69" height="27.998"/>
	<g>
		<defs>
			<rect id="SVGID_1_" x="79.371" y="11.813" width="42.117" height="13.373"/>
		</defs>
		<clipPath id="SVGID_2_">
			<use xlink:href="#SVGID_1_"  overflow="visible"/>
		</clipPath>
		<path clip-path="url(#SVGID_2_)" fill-rule="evenodd" clip-rule="evenodd" fill="#0073A5" d="M121.488,23.648
			c0,1.044-0.678,1.539-1.869,1.539h-2.272v-1.044h2.272c0.22,0,0.385-0.037,0.458-0.11c0.074-0.073,0.147-0.183,0.147-0.312
			c0-0.146-0.073-0.293-0.147-0.348c-0.073-0.073-0.201-0.11-0.421-0.11c-1.081-0.037-2.455,0.037-2.455-1.521
			c0-0.696,0.458-1.466,1.685-1.466h2.345v1.044h-2.162c-0.22,0-0.366,0-0.458,0.073c-0.11,0.11-0.183,0.22-0.183,0.385
			c0,0.183,0.11,0.293,0.238,0.348c0.147,0.037,0.293,0.073,0.458,0.073h0.641c0.66,0,1.081,0.147,1.374,0.385
			C121.341,22.842,121.488,23.153,121.488,23.648 M116.541,22.585c-0.293-0.238-0.714-0.385-1.374-0.385h-0.641
			c-0.165,0-0.311-0.037-0.458-0.073c-0.128-0.055-0.238-0.165-0.238-0.348c0-0.165,0.037-0.275,0.183-0.385
			c0.091-0.073,0.238-0.073,0.458-0.073h2.162v-1.044h-2.345c-1.264,0-1.685,0.769-1.685,1.466c0,1.557,1.374,1.484,2.455,1.521
			c0.22,0,0.348,0.037,0.422,0.11c0.073,0.055,0.147,0.202,0.147,0.348c0,0.128-0.074,0.238-0.147,0.312
			c-0.11,0.073-0.239,0.11-0.458,0.11h-2.272v1.044h2.272c1.191,0,1.869-0.495,1.869-1.539
			C116.889,23.153,116.742,22.842,116.541,22.585 M112.034,24.179h-2.766V23.19h2.712v-0.989h-2.712v-0.898h2.766v-1.026h-3.92v4.91
			h3.92V24.179z M106.85,20.515c-0.384-0.202-0.843-0.238-1.448-0.238h-2.693v4.91h1.191v-1.795h1.264
			c0.422,0,0.66,0.037,0.843,0.22c0.201,0.238,0.201,0.66,0.201,0.989v0.586h1.173v-0.953c0-0.44-0.037-0.66-0.183-0.898
			c-0.11-0.147-0.312-0.33-0.604-0.421c0.329-0.11,0.842-0.531,0.842-1.301C107.436,21.046,107.235,20.735,106.85,20.515
			 M100.181,20.277h-3.755l-1.521,1.612l-1.429-1.612h-4.745v4.91h4.672l1.502-1.612l1.448,1.612h2.271v-1.649h1.484
			c1.007,0,2.034-0.275,2.034-1.649C102.142,20.552,101.097,20.277,100.181,20.277 M105.897,22.31
			c-0.183,0.074-0.348,0.074-0.568,0.074l-1.429,0.037v-1.118h1.429c0.22,0,0.421,0,0.568,0.092c0.147,0.073,0.238,0.22,0.238,0.421
			C106.136,22.036,106.044,22.201,105.897,22.31 M100.181,22.549h-1.557v-1.246h1.557c0.422,0,0.696,0.165,0.696,0.586
			C100.878,22.31,100.603,22.549,100.181,22.549 M95.657,22.732l1.813-1.924v3.957L95.657,22.732z M92.799,24.179h-2.913V23.19
			h2.601v-0.989h-2.601v-0.898h2.949l1.301,1.429L92.799,24.179z M118.226,16.723h-1.685l-2.217-3.682v3.682h-2.381l-0.458-1.081
			h-2.455l-0.458,1.081h-1.374c-0.568,0-1.301-0.128-1.722-0.55c-0.385-0.421-0.605-0.989-0.605-1.869
			c0.018-0.733,0.11-1.392,0.642-1.924c0.348-0.385,0.989-0.568,1.795-0.568h1.118v1.063h-1.118c-0.421,0-0.678,0.073-0.916,0.275
			c-0.22,0.22-0.312,0.605-0.312,1.118c0,0.531,0.092,0.916,0.312,1.172c0.165,0.165,0.494,0.238,0.806,0.238h0.531l1.686-3.865
			h1.74l1.979,4.635v-4.635h1.814l2.07,3.407v-3.407h1.209V16.723z M104.285,11.813h-1.191v4.91h1.191V11.813z M101.794,12.033
			c-0.384-0.22-0.806-0.22-1.41-0.22H97.69v4.91h1.154v-1.777h1.264c0.422,0,0.696,0.037,0.879,0.202
			c0.202,0.256,0.165,0.678,0.165,0.953v0.623h1.209v-0.971c0-0.421-0.037-0.641-0.22-0.879c-0.11-0.147-0.312-0.311-0.568-0.421
			c0.329-0.147,0.843-0.531,0.843-1.301C102.417,12.583,102.178,12.271,101.794,12.033 M96.848,15.715h-2.748v-0.989h2.711v-1.008
			h-2.711v-0.879h2.748v-1.026h-3.939v4.91h3.939V15.715z M92.029,11.813h-1.924l-1.447,3.334l-1.539-3.334h-1.887v4.635
			l-2.015-4.635h-1.74l-2.107,4.91h1.264l0.44-1.081h2.473l0.44,1.081h2.4v-3.847l1.722,3.847h1.007l1.722-3.847v3.847h1.191V11.813
			z M111.063,14.598l-0.806-1.942l-0.806,1.942H111.063z M100.878,13.81c-0.183,0.11-0.348,0.11-0.586,0.11h-1.447v-1.081h1.447
			c0.202,0,0.44,0,0.586,0.073c0.147,0.092,0.22,0.238,0.22,0.458C101.097,13.572,101.024,13.755,100.878,13.81 M81.496,14.598
			l0.824-1.942l0.806,1.942H81.496z"/>
	</g>
	<g>
		<path fill="#FAB31E" d="M165.27,27.652c2.163,1.994,5.069,3.203,8.23,3.203c6.787,0,12.281-5.536,12.281-12.345
			c0-6.829-5.494-12.365-12.281-12.365c-3.16,0-6.066,1.209-8.23,3.203c-2.482,2.269-4.051,5.536-4.051,9.163
			C161.219,22.137,162.788,25.404,165.27,27.652L165.27,27.652z"/>
		<path fill="#FAB31E" d="M184.147,25.382c0-0.212,0.17-0.382,0.382-0.382c0.233,0,0.403,0.17,0.403,0.382
			c0,0.234-0.17,0.403-0.403,0.403C184.316,25.786,184.147,25.616,184.147,25.382L184.147,25.382z M184.529,25.701
			c0.17,0,0.318-0.149,0.318-0.318c0-0.17-0.149-0.297-0.318-0.297c-0.149,0-0.297,0.127-0.297,0.297
			C184.232,25.552,184.38,25.701,184.529,25.701L184.529,25.701z M184.486,25.574h-0.085v-0.361h0.148c0.021,0,0.064,0,0.085,0.021
			c0.042,0.021,0.042,0.042,0.042,0.085c0,0.042-0.021,0.085-0.064,0.085l0.085,0.17h-0.106l-0.042-0.149h-0.063L184.486,25.574
			l0-0.212h0.042c0.021,0,0.043,0,0.043,0c0.021,0,0.021-0.021,0.021-0.042c0-0.021,0-0.021-0.021-0.042c0,0-0.021,0-0.043,0h-0.042
			v0.085L184.486,25.574L184.486,25.574z"/>
		<path fill="#E40520" d="M169.236,17.196c-0.042-0.445-0.128-0.869-0.212-1.315h-7.508c0.085-0.445,0.212-0.869,0.339-1.294h6.808
			c-0.149-0.446-0.318-0.891-0.509-1.315h-5.769c0.212-0.445,0.445-0.891,0.7-1.315h4.348c-0.276-0.445-0.594-0.891-0.933-1.294
			h-2.482c0.382-0.467,0.806-0.912,1.252-1.315c-2.185-1.972-5.069-3.203-8.251-3.203c-6.766,0-12.281,5.536-12.281,12.365
			c0,6.809,5.515,12.345,12.281,12.345c3.182,0,6.066-1.209,8.251-3.203l0,0l0,0c0.445-0.403,0.848-0.827,1.23-1.294h-2.482
			c-0.339-0.424-0.636-0.849-0.933-1.315h4.348c0.276-0.424,0.509-0.848,0.721-1.315h-5.769c-0.191-0.424-0.382-0.848-0.53-1.294
			h6.808c0.149-0.424,0.254-0.869,0.36-1.315c0.085-0.424,0.17-0.87,0.212-1.315c0.042-0.424,0.064-0.848,0.064-1.294
			C169.3,18.065,169.278,17.62,169.236,17.196L169.236,17.196z"/>
		<path fill="#FFFFFF" d="M184.147,21.374c0-0.233,0.17-0.403,0.382-0.403c0.233,0,0.403,0.17,0.403,0.403
			c0,0.212-0.17,0.403-0.403,0.403C184.316,21.777,184.147,21.586,184.147,21.374L184.147,21.374z M184.529,21.671
			c0.17,0,0.318-0.127,0.318-0.297c0-0.17-0.149-0.297-0.318-0.297c-0.149,0-0.297,0.127-0.297,0.297S184.38,21.671,184.529,21.671
			L184.529,21.671z M184.486,21.544h-0.085v-0.339h0.148c0.021,0,0.064,0,0.085,0c0.042,0.021,0.042,0.064,0.042,0.106
			c0,0.021-0.021,0.063-0.064,0.085l0.085,0.148h-0.106l-0.042-0.127h-0.063L184.486,21.544l0-0.191h0.042
			c0.021,0,0.043,0,0.043-0.021c0.021,0,0.021-0.021,0.021-0.042c0,0,0-0.021-0.021-0.021c0-0.021-0.021,0-0.043,0h-0.042v0.085
			L184.486,21.544L184.486,21.544z"/>
		<path fill="#06326E" d="M161.091,22.074c-0.403,0.106-0.7,0.17-0.997,0.17c-0.636,0-1.018-0.403-1.018-1.124
			c0-0.148,0.021-0.297,0.042-0.467l0.085-0.488l0.064-0.403l0.573-3.479h1.273l-0.148,0.763h0.806l-0.191,1.273h-0.806
			l-0.339,2.079c-0.021,0.106-0.021,0.17-0.021,0.212c0,0.276,0.127,0.382,0.445,0.382c0.149,0,0.276-0.021,0.403-0.042
			L161.091,22.074L161.091,22.074z"/>
		<path fill="#06326E" d="M165.206,22.032c-0.467,0.127-0.891,0.191-1.358,0.191c-1.442,0-2.27-0.764-2.27-2.27
			c0-1.76,0.976-3.033,2.333-3.033c1.082,0,1.782,0.721,1.782,1.845c0,0.382-0.042,0.743-0.149,1.252h-2.651
			c-0.021,0.085-0.021,0.127-0.021,0.17c0,0.594,0.403,0.891,1.167,0.891c0.488,0,0.912-0.106,1.378-0.318L165.206,22.032
			L165.206,22.032z M164.421,18.998c0-0.106,0-0.191,0-0.255c0-0.424-0.234-0.658-0.637-0.658c-0.424,0-0.721,0.318-0.849,0.912
			L164.421,18.998L164.421,18.998z"/>
		<polygon fill="#06326E" points="150.91,22.137 149.595,22.137 150.359,17.323 148.641,22.137 147.729,22.137 147.623,17.344 
			146.817,22.137 145.523,22.137 146.562,15.88 148.492,15.88 148.535,19.741 149.829,15.88 151.949,15.88 		"/>
		<path fill="#06326E" d="M154.113,19.868c-0.127-0.021-0.17-0.021-0.255-0.021c-0.764,0-1.145,0.297-1.145,0.764
			c0,0.318,0.191,0.53,0.488,0.53C153.837,21.141,154.092,20.61,154.113,19.868L154.113,19.868z M155.173,22.137h-1.145l0.021-0.53
			c-0.297,0.403-0.7,0.615-1.4,0.615c-0.636,0-1.188-0.572-1.188-1.4c0-0.233,0.042-0.445,0.106-0.658
			c0.212-0.784,0.997-1.273,2.206-1.294c0.149,0,0.382,0,0.594,0.021c0.042-0.17,0.042-0.233,0.042-0.339
			c0-0.339-0.276-0.445-0.891-0.445c-0.382,0-0.806,0.064-1.103,0.17l-0.191,0.042l-0.085,0.021l0.191-1.146
			c0.615-0.191,1.061-0.276,1.548-0.276c1.145,0,1.76,0.53,1.76,1.506c0,0.255,0.021,0.446-0.064,0.997l-0.297,1.824l-0.042,0.318
			l-0.021,0.255l-0.021,0.17L155.173,22.137L155.173,22.137z"/>
		<path fill="#06326E" d="M171.612,17.089c0.382,0,0.721,0.106,1.188,0.339l0.233-1.358c-0.127-0.064-0.17-0.064-0.339-0.127
			l-0.53-0.149c-0.17-0.042-0.382-0.064-0.615-0.064c-0.658,0-1.039,0.021-1.442,0.255c-0.212,0.149-0.488,0.339-0.785,0.679
			l-0.17-0.042l-1.357,0.955l0.064-0.53h-1.4l-0.827,5.091h1.336l0.488-2.736c0,0,0.191-0.382,0.276-0.509
			c0.255-0.318,0.467-0.318,0.742-0.318c0.042,0,0.085,0,0.106,0c-0.043,0.297-0.064,0.615-0.064,0.976
			c0,1.654,0.933,2.694,2.376,2.694c0.36,0,0.679-0.042,1.167-0.17l0.233-1.442c-0.424,0.233-0.806,0.339-1.124,0.339
			c-0.785,0-1.251-0.594-1.251-1.528C169.915,18.065,170.615,17.089,171.612,17.089L171.612,17.089z"/>
		<path fill="#06326E" d="M182.874,15.88l-0.297,1.782c-0.318-0.488-0.7-0.721-1.209-0.721c-0.7,0-1.358,0.403-1.761,1.167v-0.021
			l-0.848-0.509l0.085-0.53h-1.421l-0.806,5.091h1.315l0.445-2.736c0,0,0.339-0.382,0.424-0.509
			c0.212-0.255,0.424-0.297,0.594-0.318c-0.149,0.424-0.233,0.933-0.233,1.506c0,1.273,0.658,2.121,1.633,2.121
			c0.488,0,0.869-0.17,1.23-0.573l-0.064,0.509h1.251l1.018-6.257L182.874,15.88L182.874,15.88z M181.241,20.929
			c-0.445,0-0.679-0.339-0.679-0.997c0-0.997,0.424-1.718,1.039-1.718c0.467,0,0.7,0.36,0.7,0.997
			C182.302,20.229,181.877,20.929,181.241,20.929L181.241,20.929z"/>
		<path fill="#06326E" d="M175.111,19.868c-0.127-0.021-0.17-0.021-0.255-0.021c-0.764,0-1.145,0.297-1.145,0.764
			c0,0.318,0.191,0.53,0.488,0.53C174.836,21.141,175.09,20.61,175.111,19.868L175.111,19.868z M176.172,22.137h-1.167l0.042-0.53
			c-0.297,0.403-0.7,0.615-1.4,0.615c-0.658,0-1.23-0.551-1.23-1.4c0-1.209,0.912-1.951,2.354-1.951c0.149,0,0.382,0,0.573,0.021
			c0.042-0.17,0.064-0.233,0.064-0.339c0-0.339-0.276-0.445-0.912-0.445c-0.36,0-0.806,0.064-1.103,0.17l-0.17,0.042l-0.085,0.021
			l0.191-1.146c0.615-0.191,1.06-0.276,1.548-0.276c1.145,0,1.739,0.53,1.739,1.506c0,0.255,0.042,0.446-0.064,0.997l-0.276,1.824
			l-0.042,0.318l-0.042,0.255l-0.021,0.17V22.137L176.172,22.137z"/>
		<path fill="#06326E" d="M157.952,18.129c0.255,0,0.615,0.021,0.997,0.085l0.191-1.188c-0.382-0.042-0.891-0.106-1.188-0.106
			c-1.485,0-1.973,0.806-1.973,1.739c0,0.615,0.276,1.06,0.997,1.4c0.53,0.255,0.615,0.297,0.615,0.53
			c0,0.318-0.276,0.509-0.785,0.509c-0.403,0-0.785-0.064-1.209-0.212l-0.149,1.166l0.021,0.021l0.255,0.042
			c0.085,0.021,0.191,0.042,0.339,0.063c0.318,0.021,0.594,0.042,0.764,0.042c1.485,0,2.1-0.572,2.1-1.697
			c0-0.7-0.339-1.124-0.997-1.421c-0.573-0.255-0.636-0.297-0.636-0.53C157.295,18.341,157.549,18.129,157.952,18.129
			L157.952,18.129z"/>
		<path fill="#FFFFFF" d="M173.393,15.668l-0.233,1.358c-0.467-0.233-0.806-0.339-1.188-0.339c-0.997,0-1.697,0.976-1.697,2.355
			c0,0.954,0.467,1.527,1.251,1.527c0.318,0,0.7-0.106,1.124-0.318l-0.233,1.421c-0.488,0.127-0.806,0.191-1.167,0.191
			c-1.442,0-2.333-1.039-2.333-2.715c0-2.227,1.23-3.796,2.991-3.796c0.233,0,0.445,0.021,0.615,0.064l0.53,0.127
			C173.224,15.605,173.266,15.626,173.393,15.668L173.393,15.668z"/>
		<path fill="#FFFFFF" d="M169.108,16.602c-0.042,0-0.085,0-0.127,0c-0.446,0-0.7,0.212-1.103,0.827l0.127-0.785h-1.209
			l-0.827,5.091h1.336c0.488-3.118,0.615-3.648,1.251-3.648c0.042,0,0.042,0,0.085,0c0.127-0.615,0.297-1.061,0.509-1.464
			L169.108,16.602L169.108,16.602z"/>
		<path fill="#FFFFFF" d="M161.431,21.671c-0.361,0.127-0.658,0.17-0.955,0.17c-0.679,0-1.06-0.382-1.06-1.124
			c0-0.127,0.021-0.297,0.042-0.446l0.085-0.509l0.064-0.403l0.573-3.478h1.315l-0.148,0.764h0.679l-0.17,1.251h-0.679l-0.361,2.121
			c-0.021,0.085-0.021,0.148-0.021,0.212c0,0.255,0.127,0.361,0.445,0.361c0.149,0,0.276,0,0.361-0.042L161.431,21.671
			L161.431,21.671z"/>
		<path fill="#FFFFFF" d="M156.319,18.256c0,0.636,0.297,1.082,0.997,1.421c0.552,0.255,0.636,0.339,0.636,0.551
			c0,0.318-0.233,0.467-0.764,0.467c-0.403,0-0.764-0.063-1.188-0.191l-0.191,1.166l0.064,0.021l0.233,0.042
			c0.085,0.021,0.191,0.042,0.36,0.042c0.297,0.042,0.551,0.042,0.721,0.042c1.4,0,2.057-0.53,2.057-1.697
			c0-0.7-0.276-1.103-0.933-1.421c-0.573-0.255-0.636-0.318-0.636-0.552c0-0.276,0.233-0.403,0.658-0.403
			c0.255,0,0.615,0.021,0.954,0.063l0.191-1.167c-0.339-0.064-0.869-0.106-1.167-0.106
			C156.828,16.538,156.298,17.323,156.319,18.256L156.319,18.256z"/>
		<path fill="#FFFFFF" d="M183.553,21.735h-1.251l0.064-0.488c-0.36,0.382-0.742,0.551-1.23,0.551c-0.976,0-1.612-0.827-1.612-2.1
			c0-1.697,0.997-3.139,2.164-3.139c0.53,0,0.912,0.233,1.273,0.7l0.297-1.782h1.315L183.553,21.735L183.553,21.735z
			 M181.602,20.547c0.615,0,1.039-0.722,1.039-1.718c0-0.658-0.233-0.997-0.7-0.997c-0.594,0-1.039,0.7-1.039,1.697
			C180.902,20.208,181.135,20.547,181.602,20.547L181.602,20.547z"/>
		<path fill="#FFFFFF" d="M165.503,21.628c-0.467,0.149-0.891,0.212-1.378,0.212c-1.485,0-2.249-0.785-2.249-2.291
			c0-1.739,0.976-3.033,2.312-3.033c1.103,0,1.803,0.721,1.803,1.845c0,0.382-0.042,0.742-0.17,1.273h-2.63
			c-0.021,0.063-0.021,0.106-0.021,0.148c0,0.594,0.403,0.891,1.167,0.891c0.488,0,0.912-0.085,1.378-0.318L165.503,21.628
			L165.503,21.628z M164.761,18.595c0-0.106,0-0.191,0-0.254c0-0.424-0.234-0.658-0.636-0.658c-0.424,0-0.721,0.318-0.848,0.912
			L164.761,18.595L164.761,18.595z"/>
		<polygon fill="#FFFFFF" points="151.249,21.735 149.935,21.735 150.698,16.92 148.98,21.735 148.068,21.735 147.962,16.962 
			147.156,21.735 145.926,21.735 146.965,15.478 148.874,15.478 148.938,19.359 150.21,15.478 152.289,15.478 		"/>
		<path fill="#FFFFFF" d="M154.537,19.465c-0.127,0-0.191-0.021-0.297-0.021c-0.742,0-1.124,0.276-1.124,0.785
			c0,0.318,0.17,0.509,0.467,0.509C154.134,20.738,154.516,20.229,154.537,19.465L154.537,19.465z M155.513,21.735h-1.103
			l0.021-0.53c-0.339,0.424-0.785,0.615-1.4,0.615c-0.721,0-1.209-0.551-1.209-1.379c0-1.252,0.848-1.973,2.333-1.973
			c0.149,0,0.339,0.021,0.551,0.042c0.042-0.17,0.042-0.233,0.042-0.318c0-0.339-0.233-0.467-0.848-0.467
			c-0.382,0-0.806,0.042-1.103,0.127l-0.191,0.064l-0.127,0.021l0.191-1.145c0.658-0.191,1.103-0.255,1.591-0.255
			c1.145,0,1.76,0.509,1.76,1.485c0,0.255-0.021,0.445-0.106,1.018l-0.297,1.803l-0.042,0.318l-0.021,0.255l-0.021,0.191
			L155.513,21.735L155.513,21.735z"/>
		<path fill="#FFFFFF" d="M175.535,19.465c-0.149,0-0.212-0.021-0.297-0.021c-0.764,0-1.145,0.276-1.145,0.785
			c0,0.318,0.191,0.509,0.488,0.509C175.111,20.738,175.514,20.229,175.535,19.465L175.535,19.465z M176.511,21.735h-1.103
			l0.021-0.53c-0.339,0.424-0.785,0.615-1.4,0.615c-0.721,0-1.209-0.551-1.209-1.379c0-1.252,0.849-1.973,2.333-1.973
			c0.149,0,0.339,0.021,0.53,0.042c0.042-0.17,0.064-0.233,0.064-0.318c0-0.339-0.233-0.467-0.849-0.467
			c-0.382,0-0.827,0.042-1.124,0.127l-0.17,0.064l-0.127,0.021l0.191-1.145c0.658-0.191,1.103-0.255,1.591-0.255
			c1.145,0,1.739,0.509,1.739,1.485c0,0.255,0,0.445-0.106,1.018l-0.276,1.803l-0.042,0.318l-0.042,0.255l-0.021,0.191
			L176.511,21.735L176.511,21.735z"/>
		<path fill="#FFFFFF" d="M180.074,16.602c-0.042,0-0.085,0-0.127,0c-0.445,0-0.7,0.212-1.103,0.827l0.127-0.785h-1.209
			l-0.806,5.091h1.315c0.488-3.118,0.615-3.648,1.251-3.648c0.042,0,0.042,0,0.085,0c0.127-0.615,0.297-1.061,0.509-1.464
			L180.074,16.602L180.074,16.602z"/>
	</g>
</g>
</svg>
