<?xml version="1.0" encoding="utf-8"?>
<!-- Generator: Adobe Illustrator 17.1.0, SVG Export Plug-In . SVG Version: 6.00 Build 0)  -->
<!DOCTYPE svg PUBLIC "-//W3C//DTD SVG 1.1//EN" "http://www.w3.org/Graphics/SVG/1.1/DTD/svg11.dtd">
<svg version="1.1" id="Layer_1" xmlns="http://www.w3.org/2000/svg" xmlns:xlink="http://www.w3.org/1999/xlink" x="0px" y="0px"
	 viewBox="0 0 302.4 101.6" enable-background="new 0 0 302.4 101.6" xml:space="preserve">
<g>
	<path fill="#0ACCF9" d="M14.4,16.9h-0.6c-0.2,0.2-0.2,0.5,0,0.6h0.6C14.6,17.4,14.6,17.1,14.4,16.9z M13.5,17.8
		c-0.3-0.3-0.3-0.8,0-1.1c0.3-0.3,0.8-0.3,1.1,0c0.3,0.3,0.3,0.8,0,1.1C14.3,18.1,13.8,18.1,13.5,17.8z M4.6,21.6L4.2,19l0.6-0.1
		l0.3,2.6L4.6,21.6z M45.5,83.5c0.4-0.3,0.4-0.9,0-1.3c-0.4-0.3-0.9-0.3-1.3,0c-0.4,0.4-0.4,0.9,0,1.3
		C44.6,83.8,45.1,83.8,45.5,83.5z M43.7,84c-0.6-0.6-0.6-1.7,0-2.3c0.6-0.6,1.7-0.6,2.3,0c0.6,0.6,0.6,1.7,0,2.3
		C45.4,84.6,44.3,84.6,43.7,84z M63.9,96.5L46.4,77.9l-1.9,0.9l-0.4-0.9l1.6-0.8L4.9,33.6C0,28.4,1.7,22.9,8.6,21.3l84-19.7
		c6.9-1.6,10.8,2.6,8.8,9.3L76.4,93.5C74.4,100.3,68.8,101.6,63.9,96.5z"/>
	<defs>
		<filter id="Adobe_OpacityMaskFilter" filterUnits="userSpaceOnUse" x="0" y="0" width="103.4" height="101.6">
			<feColorMatrix  type="matrix" values="1 0 0 0 0  0 1 0 0 0  0 0 1 0 0  0 0 0 1 0"/>
		</filter>
	</defs>
	<mask maskUnits="userSpaceOnUse" x="0" y="0" width="103.4" height="101.6" id="SVGID_1_">
		<g filter="url(#Adobe_OpacityMaskFilter)">
			<g>
				<g>
					<g>
						<g>
							<defs>
								<rect id="SVGID_2_" x="0" width="103.4" height="101.6"/>
							</defs>
							<clipPath id="SVGID_3_">
								<use xlink:href="#SVGID_2_"  overflow="visible"/>
							</clipPath>
						</g>
						<g>
							<defs>
								<rect id="SVGID_4_" x="0" width="103.4" height="101.6"/>
							</defs>
							<defs>
								<polygon id="SVGID_5_" points="-0.3,101.6 103.4,101.9 103.7,0 0,-0.3 								"/>
							</defs>
							<clipPath id="SVGID_6_">
								<use xlink:href="#SVGID_4_"  overflow="visible"/>
							</clipPath>
							<clipPath id="SVGID_7_" clip-path="url(#SVGID_6_)">
								<use xlink:href="#SVGID_5_"  overflow="visible"/>
							</clipPath>
							<g>
								<g transform="matrix(1 0 0 1 0 0)" clip-path="url(#SVGID_7_)" enable-background="new    ">
									
										<image overflow="visible" width="438" height="429" xlink:href="521AAD27FD8D43F8.jpeg"  transform="matrix(0.2378 0 0 0.2383 -0.2894 -0.2878)">
									</image>
								</g>
							</g>
						</g>
					</g>
				</g>
			</g>
		</g>
	</mask>
	<g mask="url(#SVGID_1_)" enable-background="new    ">
		<g>
			<g>
				<defs>
					<rect id="SVGID_8_" x="0" width="103.4" height="101.6"/>
				</defs>
				<clipPath id="SVGID_9_">
					<use xlink:href="#SVGID_8_"  overflow="visible"/>
				</clipPath>
				<path clip-path="url(#SVGID_9_)" fill="#B0EEFC" d="M14.4,16.9h-0.6c-0.2,0.2-0.2,0.5,0,0.6h0.6C14.6,17.4,14.6,17.1,14.4,16.9z
					 M13.5,17.8c-0.3-0.3-0.3-0.8,0-1.1c0.3-0.3,0.8-0.3,1.1,0c0.3,0.3,0.3,0.8,0,1.1C14.3,18.1,13.8,18.1,13.5,17.8z M4.6,21.6
					L4.2,19l0.6-0.1l0.3,2.6L4.6,21.6z M45.5,83.5c0.4-0.3,0.4-0.9,0-1.3c-0.4-0.3-0.9-0.3-1.3,0c-0.4,0.4-0.4,0.9,0,1.3
					C44.6,83.8,45.1,83.8,45.5,83.5z M43.7,84c-0.6-0.6-0.6-1.7,0-2.3c0.6-0.6,1.7-0.6,2.3,0c0.6,0.6,0.6,1.7,0,2.3
					C45.4,84.6,44.3,84.6,43.7,84z M63.9,96.5L46.4,77.9l-1.9,0.9l-0.4-0.9l1.6-0.8L4.9,33.6C0,28.4,1.7,22.9,8.6,21.3l84-19.7
					c6.9-1.6,10.8,2.6,8.8,9.3L76.4,93.5C74.4,100.3,68.8,101.6,63.9,96.5z"/>
			</g>
		</g>
	</g>
	<path fill="#024654" d="M67.1,14.1c-0.3-0.3-0.3-0.8,0-1.1c0.3-0.3,0.8-0.3,1.1,0c0.3,0.3,0.3,0.8,0,1.1
		C67.9,14.4,67.4,14.4,67.1,14.1z M68.6,14.5c0.5-0.5,0.5-1.4,0-1.9c-0.5-0.5-1.4-0.5-1.9,0c-0.5,0.5-0.5,1.4,0,1.9
		C67.2,15,68.1,15,68.6,14.5z M64.6,12.3c-0.4,0-0.8,0.1-1.1,0.4c-0.6,0.6-0.6,1.6,0,2.2c0.1,0.1,0.1,0.1,0.2,0.2
		C63.6,14.2,63.7,13.2,64.6,12.3z M52.1,15.7L52,15l3.2-0.7l0.2,0.7L52.1,15.7z M64.6,17.6c-0.1-0.3-0.2-0.5-0.3-0.8
		c0-0.1,0.1-0.3,0.2-0.4c0.3-0.3,0.8-0.3,1.1,0c0.3,0.3,0.3,0.8,0,1.1C65.2,17.7,64.9,17.7,64.6,17.6z M68.2,18.5
		c-0.2-0.2-0.2-0.4,0-0.6c0.1-0.2,0.4-0.2,0.6,0c0.2,0.2,0.2,0.4,0,0.6C68.6,18.6,68.3,18.6,68.2,18.5z M32.5,18.7l-0.2-0.3l1.1-1
		l0.2,0.3L32.5,18.7z M68.9,18.7c0.3-0.3,0.3-0.7,0-1c-0.3-0.3-0.7-0.3-1,0c-0.3,0.3-0.3,0.7,0,1C68.2,19,68.7,19,68.9,18.7z
		 M61.3,20.4c0.5-0.5,0.5-1.2,0-1.7c-0.5-0.5-1.3-0.5-1.7,0c-0.5,0.5-0.5,1.2,0,1.7C60.1,20.9,60.9,20.9,61.3,20.4z M58.9,21.1
		c-0.9-0.9-0.9-2.3,0-3.1c0.9-0.9,2.3-0.9,3.2,0c0.9,0.9,0.9,2.3,0,3.1C61.2,22,59.8,22,58.9,21.1z M47.8,24.5
		c0.3-0.3,0.3-0.8,0-1.1c-0.3-0.3-0.8-0.3-1.1,0c-0.3,0.3-0.3,0.8,0,1.1C47,24.8,47.5,24.8,47.8,24.5z M46.2,25
		c-0.6-0.6-0.6-1.5,0-2.1c0.6-0.6,1.5-0.6,2.1,0c0.6,0.6,0.6,1.5,0,2.1C47.7,25.5,46.7,25.5,46.2,25z M67.7,25.5l0.2-0.9L64.5,24
		c0.1-0.1,0.1-0.3,0.2-0.4c-0.3,0-0.7,0.1-0.9,0.3l0,0l0,0c0,0,0,0,0,0c-0.4,0.4-0.5,1.1-0.1,1.5c0.1-0.2,0.3-0.4,0.4-0.6L67.7,25.5
		z M27.1,25.8c0.5-0.5,0.5-1.3,0-1.7c-0.5-0.5-1.2-0.5-1.7,0c-0.1,0.1-0.2,0.2-0.2,0.3l0.7,0l0,0.9l-0.8,0c0.1,0.2,0.2,0.4,0.3,0.5
		C25.9,26.3,26.6,26.3,27.1,25.8z M24.7,26.5c-0.4-0.4-0.6-0.8-0.6-1.2l-2.3-0.1l0-0.9l2.4,0.1c0.1-0.4,0.3-0.7,0.6-1
		c0.9-0.9,2.3-0.9,3.1,0c0.9,0.9,0.9,2.3,0,3.1C27,27.4,25.5,27.4,24.7,26.5z M62.7,27.4c-0.1-0.1-0.1-0.2-0.1-0.3
		c0.1-0.2,0.2-0.4,0.3-0.5c0.2-0.1,0.4,0,0.5,0.1c0.2,0.2,0.2,0.4,0,0.6C63.1,27.5,62.8,27.5,62.7,27.4z M36.1,28.3l0-2.1h0.5l0,2.1
		H36.1z M53.3,29.1l-0.2-0.8l3.6-1l0.2,0.8L53.3,29.1z M14.8,29.7C14.9,29.7,14.9,29.7,14.8,29.7l-0.4-0.1l0.1-0.5l0.3,0
		c0,0,0,0,0,0c-0.2-0.2-0.5-0.2-0.6,0c-0.2,0.2-0.2,0.5,0,0.6C14.4,29.9,14.7,29.9,14.8,29.7z M13.9,30c-0.3-0.3-0.3-0.8,0-1.1
		c0.3-0.3,0.8-0.3,1.1,0c0.1,0.1,0.2,0.2,0.2,0.4l1.4,0.2l-0.1,0.5l-1.4-0.2c0,0.1-0.1,0.2-0.2,0.3C14.8,30.3,14.3,30.3,13.9,30z
		 M61.8,30.5c-0.1,0-0.1-0.1-0.1-0.2c0-0.3,0-0.5,0-0.8c0,0,0.1-0.1,0.1-0.1c0.3-0.3,0.8-0.3,1,0c0.3,0.3,0.3,0.8,0,1
		C62.6,30.8,62.1,30.8,61.8,30.5z M65.3,30.9c-0.4-0.4-0.4-1.1,0-1.5c0.4-0.4,1.1-0.4,1.5,0c0.4,0.4,0.4,1,0,1.5
		C66.3,31.3,65.7,31.3,65.3,30.9z M67.3,31.5c0.7-0.7,0.7-1.9,0-2.6c-0.7-0.7-1.9-0.7-2.7,0c-0.7,0.7-0.7,1.9,0,2.6
		C65.4,32.3,66.6,32.3,67.3,31.5z M61.7,31.6c-0.2,0-0.4,0.2-0.6,0.3c-0.5,0.5-0.5,1.3,0,1.7c0.2,0.2,0.4,0.3,0.6,0.3
		C61.8,33.3,61.8,32.5,61.7,31.6z M53.3,34.2c0.3-0.3,0.3-0.7,0-1c-0.3-0.3-0.8-0.3-1,0c-0.3,0.3-0.3,0.8,0,1
		C52.6,34.5,53,34.5,53.3,34.2z M51.9,34.7c-0.5-0.5-0.5-1.4,0-1.9c0.5-0.5,1.4-0.5,1.9,0c0.5,0.5,0.5,1.4,0,1.9
		C53.2,35.2,52.4,35.2,51.9,34.7z M67.1,35.6l0.5-0.1l-0.6-2l-0.5,0.1L67.1,35.6z M29.2,37.6l-3-2.5l0.6-0.7l3,2.5L29.2,37.6z
		 M59.6,37.6c0.8-0.8,0.8-2,0-2.8c-0.8-0.8-2-0.8-2.8,0c-0.8,0.8-0.8,2,0,2.8C57.6,38.4,58.8,38.4,59.6,37.6z M63.3,39.2
		c-0.3-0.3-0.3-0.9,0-1.2c0.3-0.3,0.9-0.3,1.2,0c0.3,0.3,0.3,0.9,0,1.2C64.2,39.6,63.7,39.6,63.3,39.2z M65,39.7
		c0.6-0.6,0.6-1.6,0-2.2c-0.6-0.6-1.6-0.6-2.2,0c-0.6,0.6-0.6,1.6,0,2.2C63.4,40.3,64.4,40.3,65,39.7z M45.6,41
		c0.5-0.5,0.5-1.3,0-1.7c-0.5-0.5-1.3-0.5-1.7,0c-0.5,0.5-0.5,1.3,0,1.7C44.4,41.5,45.2,41.5,45.6,41z M59.9,41.3
		c-0.3-0.3-0.3-0.8,0-1.1c0.3-0.3,0.8-0.3,1,0c0.3,0.3,0.3,0.8,0,1.1C60.7,41.6,60.2,41.6,59.9,41.3z M61.4,41.8
		c0.5-0.5,0.5-1.4,0-1.9c-0.3-0.3-0.6-0.4-1.6-0.1l0-0.1c-0.2,0-0.3,0.1-0.5,0.3c-0.2,0.2-0.3,0.6-0.2,0.9c0,0.4,0.1,0.7,0.4,1
		C60,42.3,60.9,42.3,61.4,41.8z M43.2,41.7c-0.9-0.9-0.9-2.3,0-3.2c0.9-0.9,2.3-0.9,3.2,0c0.9,0.9,0.9,2.3,0,3.2
		C45.5,42.6,44.1,42.6,43.2,41.7z M67.1,44l0.4-0.7l-3-1.7c-0.1-0.5-0.2-0.9-0.4-1.5c-0.3,1.1-0.4,2.3-0.6,3.5
		c0.1-0.2,0.2-0.3,0.4-0.5c0.2-0.2,0.5-0.4,0.8-0.5c0,0,0,0,0,0L67.1,44z M64.5,44c-0.3,0.2-0.4,0.6-0.3,1
		C64.3,44.7,64.5,44.3,64.5,44z M66.3,46.5c-0.2-0.2-0.2-0.5,0-0.6c0.2-0.2,0.5-0.2,0.6,0c0.2,0.2,0.2,0.4,0,0.6
		C66.8,46.7,66.5,46.7,66.3,46.5z M29.5,46.7c0.2-0.2,0.2-0.5,0-0.6c-0.2-0.2-0.4-0.2-0.6,0c-0.2,0.2-0.2,0.4,0,0.6
		C29.1,46.9,29.3,46.9,29.5,46.7z M67.2,46.8c0.3-0.3,0.3-0.8,0-1.2c-0.3-0.3-0.8-0.3-1.1,0c-0.3,0.3-0.3,0.8,0,1.2
		C66.4,47.1,66.9,47.1,67.2,46.8z M28.6,47c-0.3-0.3-0.3-0.8,0-1.1c0.3-0.3,0.8-0.3,1.1,0c0.3,0.3,0.3,0.8,0,1.1
		C29.4,47.3,28.9,47.3,28.6,47z M49,47.4l0-0.6l2.6-0.2l0,0.6L49,47.4z M78.1,47.1c0-0.1,0.1-0.2,0.2-0.3c0.3-0.3,0.9-0.3,1.2,0
		c0.3,0.3,0.3,0.8,0.1,1.1C79.1,47.6,78.6,47.4,78.1,47.1z M39.3,49.3l-2.2-1.4l0.3-0.5l2.2,1.4L39.3,49.3z M62.9,48.1
		c0.1,0.1,0.3,0.2,0.4,0.3c0.5,0.5,0.5,1.3,0,1.7c-0.2,0.2-0.5,0.3-0.8,0.4C62.4,49.6,62.6,48.9,62.9,48.1z M55.9,50.5
		c0.5-0.5,0.5-1.3,0-1.7c-0.5-0.5-1.3-0.5-1.7,0c-0.5,0.5-0.5,1.2,0,1.7C54.6,51,55.4,51,55.9,50.5z M53.4,51.3
		c-0.9-0.9-0.9-2.3,0-3.1c0.9-0.9,2.3-0.9,3.1,0c0.9,0.9,0.9,2.3,0,3.1C55.7,52.1,54.3,52.1,53.4,51.3z M57.6,52.2
		c-0.1-0.1-0.1-0.1-0.1-0.2l0.4-0.2c0.2-0.3,0.5-0.5,0.7-0.8c0,0,0.1,0,0.1,0.1c0.3,0.3,0.3,0.8,0,1C58.3,52.5,57.9,52.5,57.6,52.2z
		 M64.9,54c-0.2-0.2-0.2-0.7,0-0.9c0.3-0.2,0.6-0.2,0.9,0c0.2,0.2,0.2,0.7,0,0.9C65.5,54.2,65.1,54.2,64.9,54z M66.1,54.3
		c0.4-0.5,0.4-1.2,0-1.6c-0.4-0.5-1.2-0.5-1.6,0c-0.4,0.4-0.4,1.2,0,1.6C64.9,54.8,65.7,54.8,66.1,54.3z M62.7,53.5
		c-0.3-0.1-0.6,0-0.8,0.3c-0.4,0.4-0.4,1,0,1.3c0.1,0.1,0.2,0.2,0.4,0.2C62.4,54.7,62.6,54.1,62.7,53.5z M56.8,56.2
		c-0.2-0.1-0.3-0.3-0.4-0.4c0.3,0,0.6,0.1,0.8,0.4c0.2,0.2,0.3,0.3,0.3,0.6C57.3,56.5,57,56.4,56.8,56.2z M63,57.9
		c-0.2-0.2-0.2-0.4,0-0.6c0.2-0.2,0.5-0.2,0.6,0c0.2,0.2,0.2,0.5,0,0.6C63.4,58.1,63.2,58.1,63,57.9z M63.9,58.2
		c0.3-0.3,0.3-0.8,0-1.1c-0.3-0.3-0.8-0.3-1.1,0c-0.3,0.3-0.3,0.8,0,1.1C63.1,58.5,63.6,58.5,63.9,58.2z M52.8,61.8
		c0.4-0.4,0.4-1.1,0-1.6c-0.4-0.4-1.1-0.4-1.6,0c-0.4,0.4-0.4,1.1,0,1.6C51.7,62.3,52.4,62.3,52.8,61.8z M50.6,62.5
		c-0.8-0.8-0.8-2.1,0-2.8c0.8-0.8,2.1-0.8,2.8,0c0.8,0.8,0.8,2.1,0,2.8C52.7,63.2,51.4,63.2,50.6,62.5z M64.1,63.1l1.1-1.8l-0.4-0.3
		l-1.1,1.8L64.1,63.1z M46,63.3l-2.2-3.8l0.9-0.5l2.2,3.7L46,63.3z M71.6,65.4c0.2-0.2,0.2-0.6,0-0.9c-0.2-0.2-0.6-0.2-0.9,0
		c-0.3,0.3-0.3,0.6,0,0.9C70.9,65.6,71.3,65.6,71.6,65.4z M70.3,65.8c-0.4-0.4-0.4-1.2,0-1.6c1-0.3,1.3-0.2,1.5,0.1
		c0.2,0.2,0.4,0.5,0.1,1.5C71.5,66.2,70.8,66.2,70.3,65.8z M60.3,65.9c-0.1-0.1-0.1-0.2-0.2-0.3c0.3-0.2,0.4-0.3,0.5-0.4
		c0-0.1,0.1-0.1,0.2-0.2c0.1,0,0.2,0.1,0.3,0.2c0.2,0.2,0.2,0.6,0,0.8C60.9,66.2,60.5,66.2,60.3,65.9z M61.5,66.3
		c0.4-0.4,0.4-1.1,0-1.5c-0.1-0.1-0.2-0.2-0.3-0.2c0,0,0-0.1,0-0.1c-0.1-0.2-0.2-0.3-0.3-0.5c-0.5-0.5-1.3-0.5-1.7,0
		c-0.5,0.5-0.5,1.3,0,1.7c0.1,0.1,0.2,0.2,0.4,0.3c0.1,0,0.1-0.1,0.2-0.1c0.1,0.1,0.1,0.3,0.2,0.4C60.4,66.7,61,66.7,61.5,66.3z
		 M43.5,68.7c0.6-0.6,0.6-1.6,0-2.2c-0.6-0.6-1.6-0.6-2.2,0c-0.6,0.6-0.6,1.6,0,2.2C41.8,69.3,42.8,69.3,43.5,68.7z M71.3,69.8
		L68.5,69l0.2-0.7l2.9,0.7L71.3,69.8z M59.5,69.9l0.4-0.4l-1.6-1.7l-0.4,0.4L59.5,69.9z M72.1,69.9L72,69.7l0.2-0.1L72.1,69.9z
		 M40.3,69.6c-1.1-1.1-1.1-2.9,0-4c1.1-1.1,2.9-1.1,4,0c1.1,1.1,1.1,2.9,0,4C43.2,70.7,41.4,70.7,40.3,69.6z M74.8,71.5
		c-0.3-0.4-0.1-0.9,0.3-1.2c0.4-0.3,0.9-0.1,1.2,0.3c0.2,0.4,0.1,0.9-0.3,1.1C75.5,72.1,75,71.9,74.8,71.5z M76.3,72.4
		c0.7-0.4,0.9-1.4,0.5-2.1c-0.4-0.7-1.4-0.9-2.1-0.5c-0.7,0.4-0.9,1.4-0.5,2.1C74.6,72.6,75.6,72.8,76.3,72.4z M55.1,72.8
		c0,0-0.1-0.1-0.1-0.1c0.1-0.3,0.2-0.6,0.4-0.8c0.2-0.1,0.4,0,0.6,0.1c0.2,0.2,0.2,0.6,0,0.8C55.7,73,55.3,73,55.1,72.8z M76.9,75.3
		l1.1-1.8l-0.4-0.3L76.5,75L76.9,75.3z M74.3,75.1c-0.2-0.4-0.3-0.8-0.4-1.3c-0.2,0-0.5,0-0.6,0.2c-0.3,0.3-0.3,0.8,0,1.1
		C73.6,75.4,74,75.4,74.3,75.1z M53.6,77c-0.2-0.2-0.3-0.4-0.2-0.5l0.4-1c0.7-0.2,1-0.1,1.1,0.1c0.4,0.4,0.4,1,0,1.4
		C54.6,77.3,54,77.3,53.6,77z M52.3,78.4c0.2-0.3,0.4-0.7,0.6-1c-0.5-0.2-1-0.2-1.4,0.2c-0.4,0.4-0.5,1-0.2,1.5
		C51.8,78.9,52.1,78.7,52.3,78.4z M49.4,80.4c-0.1-0.1-0.1-0.2-0.1-0.3c0.2-0.1,0.4-0.3,0.7-0.4c0,0,0.1,0,0.1,0.1
		c0.2,0.2,0.2,0.5,0,0.6C49.9,80.6,49.6,80.6,49.4,80.4z M78,82.4c-0.1-0.2-0.2-0.5-0.3-0.7c-0.1,0.1-0.2,0.1-0.3,0.2
		c-0.5,0.5-0.5,1.2,0,1.7c0.2,0.2,0.5,0.4,0.9,0.4C78.2,83.4,78.2,82.9,78,82.4z M52,84.1c-0.5-0.5-0.5-1.3,0-1.7
		c0.2-0.2,0.4-0.3,0.6-0.3c-0.1,0.6,0.1,1.5,0.5,2.4C52.8,84.5,52.3,84.4,52,84.1z M73.6,84.8l-2.6-1.3l0.3-0.6l2.6,1.3L73.6,84.8z
		 M51.8,87.7C51.9,87.6,51.9,87.6,51.8,87.7c0.3-0.4,0.7-0.4,1-0.1c0.3,0.2,0.3,0.6,0,0.9c0,0-0.1,0-0.1,0.1
		C52.5,88.3,52.2,88,51.8,87.7z M78.8,88.7c-0.3-0.4-0.5-1-0.5-1.7l1,0.5l0.5-0.9l-1.5-0.7c0-0.3,0-0.5,0-0.8
		c-0.6,0-1.1-0.2-1.6-0.7c-0.9-0.9-0.9-2.3,0-3.1c0.2-0.2,0.4-0.3,0.6-0.4c-0.3-0.6-0.6-1.1-0.9-1.6l0.7,0.6l0.6-0.8l-2.7-2.1
		c-0.2-0.4-0.4-0.8-0.5-1.2c-0.5,0.3-1.2,0.3-1.7-0.2c-0.5-0.5-0.5-1.4,0-1.9c0.2-0.3,0.6-0.4,0.9-0.4c0-0.3-0.1-0.6-0.1-0.8
		c-0.1-0.6,0-1.3,0-2l-1.3,0.4l-0.2-0.6l0.7,0.4l0.8-1.5l0.1,0c0,0,0-0.1,0-0.1l1.3-2.2l-0.9-0.5l-0.5,0.9c-0.1-0.3-0.4-0.7-0.7-1.1
		c0.4-0.8,0.2-1.8-0.4-2.5c-0.5-0.5-1.3-0.7-1.9-0.6c-0.2-0.2-0.3-0.5-0.5-0.7h0.3v-4.5h-1v1.6c-0.1-0.4-0.2-0.8-0.4-1.1
		c-0.9,0.9-0.5,4.6-3.1,6.8c-0.6,0.5-0.6,2.3-0.9,3c-0.3,0.7-2.4,2.4-3,3.4c-0.8,1.4-2,3.4-3.6,4.5c-1.4,1-3.3,3.6-5,5.1
		c-0.7-0.2-1.5,0-2.1,0.6c-0.9,0.9-0.9,2.3,0,3.1c0.6,0.6,1.5,0.8,2.3,0.5c0.6,1.2,1.3,2.3,1.6,2.7c0,0.1,1.5,0.2,1.8,0.3
		c0,0.2,0,0.4,0,0.7c-1.1,0.1-2.7,0.6-3.7-0.1c0,0-0.1-0.1-0.2-0.1c0,0,0,0,0,0c0.5-0.4,0.5-1.2,0-1.6c-0.5-0.5-1.2-0.5-1.6,0
		c0,0,0,0-0.1,0.1c-0.7-0.8-1.5-1.8-2.1-2.7l-0.1,0.1l-0.9-1.4l1.9-0.9l-0.3-0.7l-2,0.9L46.4,80l1.1-0.7l1.1,1.7
		c0-0.2,0.1-0.3,0.2-0.5c0.1-0.1,0.1-0.2,0.2-0.3c0,0.1,0.1,0.2,0.2,0.3c0.3,0.3,0.8,0.3,1.1,0c0.3-0.3,0.3-0.8,0-1.1l0.1,0
		c-0.4-0.8-0.3-1.9,0.4-2.6c0.5-0.5,1.1-0.7,1.7-0.6c0,0.5,0.2,0.9,0.5,1.3c0.7,0.7,1.8,0.7,2.5,0c0.7-0.7,0.7-1.8,0-2.5
		c-0.3-0.3-0.8-0.5-1.3-0.5l0.1-0.2l-2.6-1.7l0.6-0.9l2.4,1.6c0,0,0-0.1,0.1-0.2c0.4,0.4,1.1,0.4,1.5,0c0.4-0.4,0.4-1.1,0-1.5
		c-0.2-0.2-0.4-0.3-0.7-0.3c0.2-0.4,0.4-0.8,0.6-1.2l-1.2,0.8l-0.7-1.1l3.6-2.3c0.1-0.2,0.3-0.4,0.4-0.6c0.1-0.1,0.2-0.2,0.4-0.3
		c0,0-0.1-0.1-0.1-0.1c-0.9-0.9-0.9-2.3,0-3.2c0.7-0.7,1.9-0.8,2.7-0.3c0-0.2,0-0.5-0.1-0.7l0.4,0.9l0.7-0.3l-1.5-3.1l-0.1,0
		l-1.1-2.1l0.9-0.5l0.8,1.5c0.2-0.8,0.5-1.7,0.7-2.5c-0.3-0.1-0.5-0.2-0.7-0.4c-0.7-0.7-0.7-1.7,0-2.4c0.4-0.4,1-0.6,1.5-0.5
		c0-0.2,0.1-0.5,0.1-0.7c-0.1-0.2-0.2-0.4-0.3-0.6c0.5,0,0.9-0.3,1.3-0.6c0.9-0.9,0.9-2.3,0-3.2c-0.2-0.2-0.4-0.4-0.7-0.5
		c0.1-0.3,0.3-0.6,0.4-1c-0.3-0.4-0.5-0.8-0.6-1.2c0,0.1-0.1,0.3-0.1,0.4c-0.2,0.6-0.5,1.1-0.9,1.6c-0.5,0-1,0.3-1.3,0.6
		c-0.6,0.7-0.8,1.6-0.5,2.4c-0.1,0.3-0.2,0.6-0.2,0.9c-0.2,1.6,0.2,6-1.7,6c0-0.6-0.2-1.1-0.7-1.6c-0.5-0.5-1.1-0.7-1.8-0.6
		c0.1-0.4,0.2-0.8,0.5-1.3L55.2,54l-0.4-0.9l2-0.8c0.1,0.1,0.2,0.3,0.3,0.4c0.5,0.5,1.4,0.5,1.9,0c0.5-0.5,0.5-1.4,0-1.9
		c0,0-0.1-0.1-0.1-0.1c0.1-0.1,0.1-0.2,0.2-0.3c0-0.1-0.3-1.7-0.2-2.2c0.1-0.6,0.1-1.2,0.2-1.8l-0.9,1.7l-0.9-0.5l1.2-2.3l2.5,0.4
		l0.1-0.7l-2.3-0.4l0.5-1l0.1,0c0.1-0.5,0.1-0.9,0.1-1.3c-0.2-0.1-0.5-0.2-0.7-0.4c-0.5-0.5-0.6-1.3-0.3-1.9c-1,0.1-2.1-0.3-2.9-1
		c-1.4-1.4-1.4-3.7,0-5.1c1.1-1.1,2.8-1.4,4.2-0.7c0-0.6,0.2-1.3,0.6-1.7c0.2-0.2,0.5-0.4,0.8-0.5c0,0.1,0.1,0.1,0.1,0.2
		c0.5,0.5,1.4,0.5,1.9,0c0.5-0.5,0.5-1.4,0-1.9c-0.5-0.5-1.2-0.5-1.7-0.2l-1.4-2l0.8-0.6l1.2,1.7c0.1-0.1,0.1-0.2,0.1-0.3
		c0,0,0,0.1,0.1,0.1c0.3,0.3,0.8,0.3,1.1,0c0.3-0.3,0.3-0.8,0-1.1c-0.2-0.2-0.5-0.3-0.7-0.2c-0.7-0.9-0.7-2.2,0.1-3
		c0.6-0.6,1.4-0.8,2.1-0.6c0.1-0.2,0.1-0.4,0.2-0.6c0.2-0.7,0.2-1.1,0.2-1.8l-1.7,1.8l-0.8-0.7l2.1-2.3c-0.1-0.2-0.2-0.5-0.3-0.8
		c0.4,0,0.7-0.1,1-0.4c0.5-0.5,0.5-1.4,0-1.9c-0.5-0.5-1.4-0.5-1.9,0c-0.2,0.2-0.3,0.4-0.3,0.6c-0.4-0.1-0.7-0.4-1-0.7
		c-1.1-1.1-1.1-2.9,0-4c0.9-0.9,2.3-1.1,3.4-0.5c0.3-0.1,0.6-0.3,1-0.4c1.8-0.6,6.7,1.2,7.1,2c0.1,0.1-0.5,2.4-0.6,3
		c0,1,1.1,0.5,1,2.5c-1.6,0.1-0.4,1.8-1.1,2.3c-0.6,0.5-2.7,0.1-3.6,0.3c-0.3,0.1-0.4,0.6-0.4,1c0,2.4,3.1,5,3.8,8.7
		c0.3,1.9,0.6,3,1.1,4.9c0.4,1.5,0.1,3.7-0.2,5.8c2.3,1.2,7.3,2.5,7.9,2.9c1.8,1.4,1.5,3.3-1,4c0,0-0.4,0-0.4,0
		c-0.1-0.1-0.2-0.1-0.3-0.2c0.4-0.6,0.3-1.4-0.2-2c-0.6-0.6-1.6-0.6-2.2,0c-0.1,0.1-0.2,0.3-0.3,0.4c-0.2-0.2-0.4-0.4-0.6-0.6
		c-0.1-0.1-0.2-0.2-0.2-0.2L74.2,46l0-0.6l1.1-0.1c-0.6-0.2-1.3-0.3-1.8-0.5c-0.1,0.4-0.1,0.8-0.1,1.1c-1.5,3.4,2.8,12.4,4,15.8
		c1.1,3.2,2.7,10.4,3,13.8c0.3,4.4,0.1,9.4,4.1,11.2c0.9,0.4,3,0.1,3.9,1c0.1,0.5-0.2,0.9-0.3,1.3C87.6,89.7,79.2,89.3,78.8,88.7z"
		/>
	<polygon fill="#FFFFFF" points="149.5,67.4 149.5,33.5 142.2,33.5 142.2,46.8 126.1,46.8 126.1,33.5 118.9,33.5 118.9,67.4 
		126.1,67.4 126.1,53.2 142.2,53.2 142.2,67.4 	"/>
	<rect x="156.1" y="33.5" fill="#FFFFFF" width="7.2" height="34"/>
	<path fill="#FFFFFF" d="M183.5,61.1h-6.2V39.8h6.2c2.3,0,4.3,0.5,5.9,1.4c1.6,0.9,2.8,2.2,3.6,3.8c0.8,1.6,1.2,3.4,1.2,5.4
		c0,1.4-0.3,2.8-0.7,4.1c-0.5,1.3-1.2,2.4-2.1,3.4c-0.9,1-2,1.7-3.4,2.3C186.7,60.8,185.2,61.1,183.5,61.1z M183.5,67.4
		c2.7,0,5.1-0.4,7.3-1.2c2.2-0.8,4.1-1.9,5.7-3.4c1.6-1.5,2.8-3.3,3.7-5.4c0.9-2.1,1.3-4.4,1.3-7c0-2.6-0.5-4.9-1.3-7
		c-0.9-2.1-2.1-3.9-3.7-5.4c-1.6-1.5-3.5-2.6-5.7-3.4c-2.2-0.8-4.6-1.2-7.3-1.2h-13.4v34H183.5z"/>
	<polygon fill="#FFFFFF" points="230.7,67.4 230.7,61.1 213.9,61.1 213.9,53.4 230.4,53.4 230.4,47 213.9,47 213.9,39.8 230.7,39.8 
		230.7,33.5 206.7,33.5 206.7,67.4 	"/>
	<g>
		<path fill="#FFFFFF" d="M241.9,35.8c3.6,0,3.3,6.5,4.8,8.7c1.7-2,3.8-4.4,6.5-4.4c3.5,0,3.1,5.5,5.9,5.5c4.2,0,6.6-5.5,11.4-5.5
			c6.3,0,7.1,9.1,7.1,13.4c-6,0-3.4-8-8.2-8c-4.8,0-5.7,6.8-10.4,6.8c-0.4,0-1.4-0.2-1.5-0.2l-5.4-5.4c-0.8,1.3-4.6,7.5-5.4,8.6
			c-0.2,0.2-0.9,1-1,1c-0.1,0-0.4,0.1-0.6,0.1c-3,0-4.9-17.2-4.9-17.9C240.1,37.2,240.2,35.8,241.9,35.8z"/>
		<path fill="#FFFFFF" d="M291.5,35.5c4.2,0,10.8,2.5,10.8,7.6c0,6.7-12.4,4.7-15.8,4.7c0,3.9,1.1,6,6,6c2.5,0,5.1-1,6.5-3.3
			c0.2,0.2,0.9,0.9,1.1,1.1v0.5c0,3.9-4.8,6-8.1,6c-6.4,0-12.4-6-12.4-12.4C279.6,39.4,285.5,35.5,291.5,35.5z M291.5,44.3
			c1.2,0,4.3,0.6,4.3-1.7c0-2.6-4.6-2.8-6.2-2.8h-1.4c-1.4,0-2.7,0.4-3.2,2.2C286.5,44.3,289.1,44.3,291.5,44.3z"/>
	</g>
</g>
</svg>
